<?xml version="1.0" standalone="no"?>
<!DOCTYPE svg PUBLIC "-//W3C//DTD SVG 20010904//EN"
 "http://www.w3.org/TR/2001/REC-SVG-20010904/DTD/svg10.dtd">
<svg version="1.0" xmlns="http://www.w3.org/2000/svg"
 width="640.000000pt" height="1280.000000pt" viewBox="0 0 640.000000 1280.000000"
 preserveAspectRatio="xMidYMid meet">
<g transform="translate(0.000000,1280.000000) scale(0.100000,-0.100000)"
fill="#000000" stroke="none">
<path d="M1252 12683 c-157 -1458 -235 -2593 -236 -3468 -1 -444 3 -517 45
-755 145 -831 609 -1436 1299 -1693 514 -191 1173 -190 1677 5 698 269 1165
886 1307 1726 40 238 49 422 42 842 -15 913 -92 1996 -238 3343 l-12 117
-1936 0 -1936 0 -12 -117z m3792 -5 c3 -13 17 -140 30 -283 87 -890 137 -1538
187 -2405 17 -306 24 -1052 10 -1166 -52 -425 -204 -749 -480 -1024 -244 -242
-521 -394 -896 -490 -352 -90 -749 -109 -1130 -54 -141 20 -383 82 -505 129
-262 100 -465 230 -651 415 -276 275 -428 599 -480 1024 -14 114 -7 860 10
1166 50 867 98 1481 187 2405 13 143 27 270 29 283 l5 22 1840 0 1840 0 4 -22z"/>
<path d="M2786 6489 c106 -112 155 -199 190 -337 l24 -95 0 -2743 0 -2743 -48
-58 c-85 -102 -220 -207 -347 -271 -224 -112 -417 -138 -1122 -150 -221 -4
-403 -9 -406 -12 -2 -3 -7 -22 -11 -43 l-7 -37 2136 0 2135 0 0 39 c0 39 -1
40 -42 45 -24 3 -216 8 -428 11 -671 10 -846 35 -1080 156 -121 62 -209 128
-304 230 l-76 81 0 2757 c0 2732 0 2759 20 2837 32 123 73 197 192 338 l32 39
-54 -6 c-306 -32 -427 -32 -780 0 l-65 5 41 -43z"/>
</g>
</svg>
